<svg width="1600" height="1100" viewBox="0 0 1600 1100" fill="none" xmlns="http://www.w3.org/2000/svg">
  <rect width="1600" height="1100" fill="#181411"/>
  <rect width="1600" height="1100" fill="url(#paint0_linear_1_2)"/>
  <circle cx="1260" cy="172" r="221" fill="#F06A3B" fill-opacity="0.22"/>
  <circle cx="310" cy="906" r="302" fill="#8D2F13" fill-opacity="0.24"/>
  <circle cx="1430" cy="822" r="202" fill="#0D5B3B" fill-opacity="0.18"/>
  <path d="M0 824C172 766.667 331 738 477 738C696 738 778 864 1062 864C1251.33 864 1430.67 805.333 1600 688V1100H0V824Z" fill="url(#paint1_linear_1_2)"/>
  <path d="M964 214L1080 116V770H964V214Z" fill="#F6F1E8" fill-opacity="0.1"/>
  <path d="M1110 82L1238 0V770H1110V82Z" fill="#F6F1E8" fill-opacity="0.14"/>
  <path d="M1268 152L1382 68V770H1268V152Z" fill="#F6F1E8" fill-opacity="0.09"/>
  <path d="M167 324L266 252V770H167V324Z" fill="#F6F1E8" fill-opacity="0.09"/>
  <path d="M296 226L408 142V770H296V226Z" fill="#F6F1E8" fill-opacity="0.14"/>
  <path d="M438 284L528 224V770H438V284Z" fill="#F6F1E8" fill-opacity="0.08"/>
  <path d="M0 710H1600" stroke="#FFF5EC" stroke-opacity="0.18" stroke-width="2"/>
  <path d="M0 764H1600" stroke="#FFF5EC" stroke-opacity="0.08" stroke-width="2"/>
  <g opacity="0.85">
    <rect x="980" y="242" width="28" height="28" fill="#F9E7DA" fill-opacity="0.74"/>
    <rect x="980" y="296" width="28" height="28" fill="#F9E7DA" fill-opacity="0.74"/>
    <rect x="980" y="350" width="28" height="28" fill="#F9E7DA" fill-opacity="0.74"/>
    <rect x="1128" y="116" width="30" height="30" fill="#F9E7DA" fill-opacity="0.82"/>
    <rect x="1128" y="174" width="30" height="30" fill="#F9E7DA" fill-opacity="0.82"/>
    <rect x="1286" y="188" width="26" height="26" fill="#F9E7DA" fill-opacity="0.72"/>
    <rect x="1286" y="242" width="26" height="26" fill="#F9E7DA" fill-opacity="0.72"/>
    <rect x="1286" y="296" width="26" height="26" fill="#F9E7DA" fill-opacity="0.72"/>
    <rect x="317" y="258" width="28" height="28" fill="#F9E7DA" fill-opacity="0.8"/>
    <rect x="317" y="314" width="28" height="28" fill="#F9E7DA" fill-opacity="0.8"/>
    <rect x="317" y="370" width="28" height="28" fill="#F9E7DA" fill-opacity="0.8"/>
  </g>
  <text x="84" y="964" fill="#FFF5EC" fill-opacity="0.92" font-family="Avenir Next, Helvetica, Arial, sans-serif" font-size="78" letter-spacing="0.16em">CITY EVENING</text>
  <text x="88" y="1030" fill="#FFF5EC" fill-opacity="0.58" font-family="Avenir Next, Helvetica, Arial, sans-serif" font-size="26" letter-spacing="0.18em">PLACEHOLDER VISUAL FOR LOCAGOX</text>
  <defs>
    <linearGradient id="paint0_linear_1_2" x1="207" y1="79" x2="1280" y2="986" gradientUnits="userSpaceOnUse">
      <stop stop-color="#2B211C"/>
      <stop offset="0.56" stop-color="#1C1714"/>
      <stop offset="1" stop-color="#100E0D"/>
    </linearGradient>
    <linearGradient id="paint1_linear_1_2" x1="800" y1="688" x2="800" y2="1100" gradientUnits="userSpaceOnUse">
      <stop stop-color="#151210" stop-opacity="0"/>
      <stop offset="1" stop-color="#0F0C0A"/>
    </linearGradient>
  </defs>
</svg>
