<svg width="1200" height="900" viewBox="0 0 1200 900" fill="none" xmlns="http://www.w3.org/2000/svg">
  <rect width="1200" height="900" fill="#F3E9DE"/>
  <rect width="1200" height="900" fill="url(#paint0_linear_2_2)"/>
  <rect x="86" y="78" width="1028" height="744" rx="36" fill="#FFF9F3" fill-opacity="0.2" stroke="#FFF9F3" stroke-opacity="0.38"/>
  <circle cx="932" cy="252" r="178" fill="#F06A3B" fill-opacity="0.24"/>
  <circle cx="240" cy="726" r="206" fill="#0D5B3B" fill-opacity="0.12"/>
  <rect x="162" y="182" width="876" height="470" rx="28" fill="#221C18" fill-opacity="0.8"/>
  <rect x="194" y="214" width="812" height="406" rx="18" fill="url(#paint1_linear_2_2)"/>
  <rect x="194" y="662" width="274" height="28" rx="14" fill="#FFF9F3" fill-opacity="0.7"/>
  <rect x="194" y="712" width="176" height="18" rx="9" fill="#FFF9F3" fill-opacity="0.38"/>
  <rect x="194" y="748" width="240" height="18" rx="9" fill="#FFF9F3" fill-opacity="0.3"/>
  <rect x="864" y="676" width="142" height="54" rx="27" fill="#CB5D38"/>
  <text x="898" y="711" fill="#FFF9F3" font-family="Avenir Next, Helvetica, Arial, sans-serif" font-size="22" letter-spacing="0.1em">VIEW</text>
  <text x="194" y="564" fill="#FFF9F3" fill-opacity="0.95" font-family="Avenir Next, Helvetica, Arial, sans-serif" font-size="64" letter-spacing="-0.04em">PLACEHOLDER</text>
  <text x="194" y="402" fill="#FFF9F3" fill-opacity="0.54" font-family="Avenir Next, Helvetica, Arial, sans-serif" font-size="24" letter-spacing="0.18em">SALON / SPA / WELLNESS</text>
  <defs>
    <linearGradient id="paint0_linear_2_2" x1="120" y1="60" x2="1066" y2="836" gradientUnits="userSpaceOnUse">
      <stop stop-color="#F5EEE6"/>
      <stop offset="1" stop-color="#EADBCB"/>
    </linearGradient>
    <linearGradient id="paint1_linear_2_2" x1="238" y1="232" x2="962" y2="588" gradientUnits="userSpaceOnUse">
      <stop stop-color="#3A2C24"/>
      <stop offset="1" stop-color="#171210"/>
    </linearGradient>
  </defs>
</svg>
